<?xml version="1.0" encoding="UTF-8" standalone="no"?>
<!-- Uploaded to: SVG Repo, www.svgrepo.com, Generator: SVG Repo Mixer Tools -->

<svg
   fill="#000000"
   width="800px"
   height="800px"
   viewBox="0 0 35 35"
   data-name="Layer 2"
   id="Layer_2"
   version="1.1"
   sodipodi:docname="navigate-icon.svg"
   inkscape:version="1.3.2 (091e20ef0f, 2023-11-25)"
   xmlns:inkscape="http://www.inkscape.org/namespaces/inkscape"
   xmlns:sodipodi="http://sodipodi.sourceforge.net/DTD/sodipodi-0.dtd"
   xmlns="http://www.w3.org/2000/svg"
   xmlns:svg="http://www.w3.org/2000/svg">
  <defs
     id="defs1" />
  <sodipodi:namedview
     id="namedview1"
     pagecolor="#ffffff"
     bordercolor="#000000"
     borderopacity="0.25"
     inkscape:showpageshadow="2"
     inkscape:pageopacity="0.0"
     inkscape:pagecheckerboard="0"
     inkscape:deskcolor="#d1d1d1"
     inkscape:zoom="0.7115262"
     inkscape:cx="237.51761"
     inkscape:cy="357.68184"
     inkscape:window-width="1920"
     inkscape:window-height="1011"
     inkscape:window-x="0"
     inkscape:window-y="0"
     inkscape:window-maximized="1"
     inkscape:current-layer="Layer_2" />
  <path
     d="M 20.504646,30.801596 H 20.260458 A 2.9932685,2.9947525 0 0 1 17.5035,28.303341 L 15.928096,19.271799 A 1.0712751,1.0718062 0 0 0 15.04587,18.389135 L 6.0188013,16.812948 A 3.0247766,3.0262762 0 0 1 5.5776879,10.965301 L 26.688108,3.7778953 v 0 a 3.0247766,3.0262762 0 0 1 3.843989,3.8458927 l -7.175968,21.120885 a 2.9853915,2.9868716 0 0 1 -2.851483,2.056923 z M 27.326147,5.6456751 6.2078498,12.825199 a 1.055521,1.0560443 0 0 0 0.1575404,2.041161 l 9.0270688,1.576185 a 3.0326536,3.0341571 0 0 1 2.449753,2.450968 l 1.575405,9.031544 a 1.055521,1.0560443 0 0 0 2.040149,0.157618 L 28.665241,6.9854328 A 1.055521,1.0560443 0 0 0 27.326147,5.6456751 Z"
     id="path1"
     style="fill:#ffffff;fill-opacity:1;stroke-width:0.787898" />
</svg>
