<?xml version="1.0" encoding="UTF-8" standalone="no"?>
<!-- Uploaded to: SVG Repo, www.svgrepo.com, Generator: SVG Repo Mixer Tools -->

<svg
   width="800px"
   height="800px"
   viewBox="0 0 16 16"
   fill="#000000"
   class="bi bi-cloud-slash"
   version="1.1"
   id="svg2"
   sodipodi:docname="offline-icon.svg"
   inkscape:version="1.3.2 (091e20ef0f, 2023-11-25)"
   xmlns:inkscape="http://www.inkscape.org/namespaces/inkscape"
   xmlns:sodipodi="http://sodipodi.sourceforge.net/DTD/sodipodi-0.dtd"
   xmlns="http://www.w3.org/2000/svg"
   xmlns:svg="http://www.w3.org/2000/svg">
  <defs
     id="defs2" />
  <sodipodi:namedview
     id="namedview2"
     pagecolor="#ffffff"
     bordercolor="#000000"
     borderopacity="0.25"
     inkscape:showpageshadow="2"
     inkscape:pageopacity="0.0"
     inkscape:pagecheckerboard="0"
     inkscape:deskcolor="#d1d1d1"
     inkscape:zoom="1.00625"
     inkscape:cx="400.49689"
     inkscape:cy="400"
     inkscape:window-width="1920"
     inkscape:window-height="1011"
     inkscape:window-x="0"
     inkscape:window-y="0"
     inkscape:window-maximized="1"
     inkscape:current-layer="svg2" />
  <path
     fill-rule="evenodd"
     d="M3.112 5.112a3.125 3.125 0 0 0-.17.613C1.266 6.095 0 7.555 0 9.318 0 11.366 1.708 13 3.781 13H11l-1-1H3.781C2.231 12 1 10.785 1 9.318c0-1.365 1.064-2.513 2.46-2.666l.446-.05v-.447c0-.075.006-.152.018-.231l-.812-.812zm2.55-1.45-.725-.725A5.512 5.512 0 0 1 8 2c2.69 0 4.923 2 5.166 4.579C14.758 6.804 16 8.137 16 9.773a3.2 3.2 0 0 1-1.516 2.711l-.733-.733C14.498 11.378 15 10.626 15 9.773c0-1.216-1.02-2.228-2.313-2.228h-.5v-.5C12.188 4.825 10.328 3 8 3c-.875 0-1.678.26-2.339.661z"
     id="path1"
     style="fill:#ffffff;fill-opacity:1" />
  <path
     d="m13.646 14.354-12-12 .708-.708 12 12-.707.707z"
     id="path2"
     style="fill:#ffffff;fill-opacity:1" />
</svg>
